<svg id="visual" viewBox="0 0 900 600" width="900" height="600" xmlns="http://www.w3.org/2000/svg" xmlns:xlink="http://www.w3.org/1999/xlink" version="1.1"><path d="M0 37L21.5 38C43 39 86 41 128.8 41C171.7 41 214.3 39 257.2 37C300 35 343 33 385.8 36C428.7 39 471.3 47 514.2 52C557 57 600 59 642.8 57C685.7 55 728.3 49 771.2 43C814 37 857 31 878.5 28L900 25L900 0L878.5 0C857 0 814 0 771.2 0C728.3 0 685.7 0 642.8 0C600 0 557 0 514.2 0C471.3 0 428.7 0 385.8 0C343 0 300 0 257.2 0C214.3 0 171.7 0 128.8 0C86 0 43 0 21.5 0L0 0Z" fill="#65afff"></path><path d="M0 121L21.5 114C43 107 86 93 128.8 85C171.7 77 214.3 75 257.2 77C300 79 343 85 385.8 89C428.7 93 471.3 95 514.2 104C557 113 600 129 642.8 133C685.7 137 728.3 129 771.2 118C814 107 857 93 878.5 86L900 79L900 23L878.5 26C857 29 814 35 771.2 41C728.3 47 685.7 53 642.8 55C600 57 557 55 514.2 50C471.3 45 428.7 37 385.8 34C343 31 300 33 257.2 35C214.3 37 171.7 39 128.8 39C86 39 43 37 21.5 36L0 35Z" fill="#5da4ee"></path><path d="M0 133L21.5 133C43 133 86 133 128.8 125C171.7 117 214.3 101 257.2 103C300 105 343 125 385.8 131C428.7 137 471.3 129 514.2 134C557 139 600 157 642.8 165C685.7 173 728.3 171 771.2 158C814 145 857 121 878.5 109L900 97L900 77L878.5 84C857 91 814 105 771.2 116C728.3 127 685.7 135 642.8 131C600 127 557 111 514.2 102C471.3 93 428.7 91 385.8 87C343 83 300 77 257.2 75C214.3 73 171.7 75 128.8 83C86 91 43 105 21.5 112L0 119Z" fill="#569ade"></path><path d="M0 163L21.5 162C43 161 86 159 128.8 151C171.7 143 214.3 129 257.2 137C300 145 343 175 385.8 185C428.7 195 471.3 185 514.2 189C557 193 600 211 642.8 219C685.7 227 728.3 225 771.2 210C814 195 857 167 878.5 153L900 139L900 95L878.5 107C857 119 814 143 771.2 156C728.3 169 685.7 171 642.8 163C600 155 557 137 514.2 132C471.3 127 428.7 135 385.8 129C343 123 300 103 257.2 101C214.3 99 171.7 115 128.8 123C86 131 43 131 21.5 131L0 131Z" fill="#4f8fce"></path><path d="M0 235L21.5 234C43 233 86 231 128.8 215C171.7 199 214.3 169 257.2 172C300 175 343 211 385.8 234C428.7 257 471.3 267 514.2 279C557 291 600 305 642.8 312C685.7 319 728.3 319 771.2 306C814 293 857 267 878.5 254L900 241L900 137L878.5 151C857 165 814 193 771.2 208C728.3 223 685.7 225 642.8 217C600 209 557 191 514.2 187C471.3 183 428.7 193 385.8 183C343 173 300 143 257.2 135C214.3 127 171.7 141 128.8 149C86 157 43 159 21.5 160L0 161Z" fill="#4985be"></path><path d="M0 403L21.5 408C43 413 86 423 128.8 408C171.7 393 214.3 353 257.2 338C300 323 343 333 385.8 354C428.7 375 471.3 407 514.2 429C557 451 600 463 642.8 466C685.7 469 728.3 463 771.2 436C814 409 857 361 878.5 337L900 313L900 239L878.5 252C857 265 814 291 771.2 304C728.3 317 685.7 317 642.8 310C600 303 557 289 514.2 277C471.3 265 428.7 255 385.8 232C343 209 300 173 257.2 170C214.3 167 171.7 197 128.8 213C86 229 43 231 21.5 232L0 233Z" fill="#437bae"></path><path d="M0 565L21.5 556C43 547 86 529 128.8 513C171.7 497 214.3 483 257.2 491C300 499 343 529 385.8 541C428.7 553 471.3 547 514.2 546C557 545 600 549 642.8 550C685.7 551 728.3 549 771.2 546C814 543 857 539 878.5 537L900 535L900 311L878.5 335C857 359 814 407 771.2 434C728.3 461 685.7 467 642.8 464C600 461 557 449 514.2 427C471.3 405 428.7 373 385.8 352C343 331 300 321 257.2 336C214.3 351 171.7 391 128.8 406C86 421 43 411 21.5 406L0 401Z" fill="#3e709f"></path><path d="M0 589L21.5 589C43 589 86 589 128.8 582C171.7 575 214.3 561 257.2 561C300 561 343 575 385.8 578C428.7 581 471.3 573 514.2 570C557 567 600 569 642.8 569C685.7 569 728.3 567 771.2 564C814 561 857 557 878.5 555L900 553L900 533L878.5 535C857 537 814 541 771.2 544C728.3 547 685.7 549 642.8 548C600 547 557 543 514.2 544C471.3 545 428.7 551 385.8 539C343 527 300 497 257.2 489C214.3 481 171.7 495 128.8 511C86 527 43 545 21.5 554L0 563Z" fill="#386690"></path><path d="M0 601L21.5 601C43 601 86 601 128.8 601C171.7 601 214.3 601 257.2 601C300 601 343 601 385.8 601C428.7 601 471.3 601 514.2 601C557 601 600 601 642.8 601C685.7 601 728.3 601 771.2 601C814 601 857 601 878.5 601L900 601L900 551L878.5 553C857 555 814 559 771.2 562C728.3 565 685.7 567 642.8 567C600 567 557 565 514.2 568C471.3 571 428.7 579 385.8 576C343 573 300 559 257.2 559C214.3 559 171.7 573 128.8 580C86 587 43 587 21.5 587L0 587Z" fill="#335c81"></path></svg>