<svg id="visual" viewBox="0 0 1000 121.875" width="1000" height="121.875" xmlns="http://www.w3.org/2000/svg" xmlns:xlink="http://www.w3.org/1999/xlink" version="1.1"><path d="M0 14L16.7 14C33.3 14 66.7 14 100 13C133.3 12 166.7 10 200 10.8C233.3 11.7 266.7 15.3 300 15.3C333.3 15.3 366.7 11.7 400 11.3C433.3 11 466.7 14 500 15.7C533.3 17.3 566.7 17.7 600 18C633.3 18.3 666.7 18.7 700 17.7C733.3 16.7 766.7 14.3 800 13C833.3 11.7 866.7 11.3 900 12C933.3 12.7 966.7 14.3 983.3 15.2L1000 16L1000 0L983.3 0C966.7 0 933.3 0 900 0C866.7 0 833.3 0 800 0C766.7 0 733.3 0 700 0C666.7 0 633.3 0 600 0C566.7 0 533.3 0 500 0C466.7 0 433.3 0 400 0C366.7 0 333.3 0 300 0C266.7 0 233.3 0 200 0C166.7 0 133.3 0 100 0C66.7 0 33.3 0 16.7 0L0 0Z" fill="#274060"></path><path d="M0 45L16.7 45C33.3 45 66.7 45 100 44.2C133.3 43.3 166.7 41.7 200 42.3C233.3 43 266.7 46 300 44.8C333.3 43.7 366.7 38.3 400 38C433.3 37.7 466.7 42.3 500 44.2C533.3 46 566.7 45 600 46.5C633.3 48 666.7 52 700 53.3C733.3 54.7 766.7 53.3 800 52.2C833.3 51 866.7 50 900 48.7C933.3 47.3 966.7 45.7 983.3 44.8L1000 44L1000 14L983.3 13.2C966.7 12.3 933.3 10.7 900 10C866.7 9.3 833.3 9.7 800 11C766.7 12.3 733.3 14.7 700 15.7C666.7 16.7 633.3 16.3 600 16C566.7 15.7 533.3 15.3 500 13.7C466.7 12 433.3 9 400 9.3C366.7 9.7 333.3 13.3 300 13.3C266.7 13.3 233.3 9.7 200 8.8C166.7 8 133.3 10 100 11C66.7 12 33.3 12 16.7 12L0 12Z" fill="#2b4a6b"></path><path d="M0 52L16.7 52.5C33.3 53 66.7 54 100 54.2C133.3 54.3 166.7 53.7 200 54.2C233.3 54.7 266.7 56.3 300 55.3C333.3 54.3 366.7 50.7 400 50.2C433.3 49.7 466.7 52.3 500 54.2C533.3 56 566.7 57 600 59.5C633.3 62 666.7 66 700 66.8C733.3 67.7 766.7 65.3 800 63.7C833.3 62 866.7 61 900 59C933.3 57 966.7 54 983.3 52.5L1000 51L1000 42L983.3 42.8C966.7 43.7 933.3 45.3 900 46.7C866.7 48 833.3 49 800 50.2C766.7 51.3 733.3 52.7 700 51.3C666.7 50 633.3 46 600 44.5C566.7 43 533.3 44 500 42.2C466.7 40.3 433.3 35.7 400 36C366.7 36.3 333.3 41.7 300 42.8C266.7 44 233.3 41 200 40.3C166.7 39.7 133.3 41.3 100 42.2C66.7 43 33.3 43 16.7 43L0 43Z" fill="#305477"></path><path d="M0 72L16.7 72.3C33.3 72.7 66.7 73.3 100 74.3C133.3 75.3 166.7 76.7 200 77.5C233.3 78.3 266.7 78.7 300 76.2C333.3 73.7 366.7 68.3 400 66.7C433.3 65 466.7 67 500 68.5C533.3 70 566.7 71 600 73.7C633.3 76.3 666.7 80.7 700 81.8C733.3 83 766.7 81 800 78.5C833.3 76 866.7 73 900 70.8C933.3 68.7 966.7 67.3 983.3 66.7L1000 66L1000 49L983.3 50.5C966.7 52 933.3 55 900 57C866.7 59 833.3 60 800 61.7C766.7 63.3 733.3 65.7 700 64.8C666.7 64 633.3 60 600 57.5C566.7 55 533.3 54 500 52.2C466.7 50.3 433.3 47.7 400 48.2C366.7 48.7 333.3 52.3 300 53.3C266.7 54.3 233.3 52.7 200 52.2C166.7 51.7 133.3 52.3 100 52.2C66.7 52 33.3 51 16.7 50.5L0 50Z" fill="#335c81"></path><path d="M0 83L16.7 83C33.3 83 66.7 83 100 83.2C133.3 83.3 166.7 83.7 200 85C233.3 86.3 266.7 88.7 300 87.5C333.3 86.3 366.7 81.7 400 79.8C433.3 78 466.7 79 500 79.5C533.3 80 566.7 80 600 82.5C633.3 85 666.7 90 700 91.7C733.3 93.3 766.7 91.7 800 89C833.3 86.3 866.7 82.7 900 80.7C933.3 78.7 966.7 78.3 983.3 78.2L1000 78L1000 64L983.3 64.7C966.7 65.3 933.3 66.7 900 68.8C866.7 71 833.3 74 800 76.5C766.7 79 733.3 81 700 79.8C666.7 78.7 633.3 74.3 600 71.7C566.7 69 533.3 68 500 66.5C466.7 65 433.3 63 400 64.7C366.7 66.3 333.3 71.7 300 74.2C266.7 76.7 233.3 76.3 200 75.5C166.7 74.7 133.3 73.3 100 72.3C66.7 71.3 33.3 70.7 16.7 70.3L0 70Z" fill="#335c81"></path><path d="M0 90L16.7 90.7C33.3 91.3 66.7 92.7 100 93C133.3 93.3 166.7 92.7 200 93.2C233.3 93.7 266.7 95.3 300 93.5C333.3 91.7 366.7 86.3 400 84.5C433.3 82.7 466.7 84.3 500 85C533.3 85.7 566.7 85.3 600 87.8C633.3 90.3 666.7 95.7 700 98.2C733.3 100.7 766.7 100.3 800 98.3C833.3 96.3 866.7 92.7 900 89.8C933.3 87 966.7 85 983.3 84L1000 83L1000 76L983.3 76.2C966.7 76.3 933.3 76.7 900 78.7C866.7 80.7 833.3 84.3 800 87C766.7 89.7 733.3 91.3 700 89.7C666.7 88 633.3 83 600 80.5C566.7 78 533.3 78 500 77.5C466.7 77 433.3 76 400 77.8C366.7 79.7 333.3 84.3 300 85.5C266.7 86.7 233.3 84.3 200 83C166.7 81.7 133.3 81.3 100 81.2C66.7 81 33.3 81 16.7 81L0 81Z" fill="#305477"></path><path d="M0 97L16.7 98.3C33.3 99.7 66.7 102.3 100 103.2C133.3 104 166.7 103 200 103.2C233.3 103.3 266.7 104.7 300 103C333.3 101.3 366.7 96.7 400 94.8C433.3 93 466.7 94 500 94C533.3 94 566.7 93 600 95C633.3 97 666.7 102 700 104.5C733.3 107 766.7 107 800 105.7C833.3 104.3 866.7 101.7 900 99C933.3 96.3 966.7 93.7 983.3 92.3L1000 91L1000 81L983.3 82C966.7 83 933.3 85 900 87.8C866.7 90.7 833.3 94.3 800 96.3C766.7 98.3 733.3 98.7 700 96.2C666.7 93.7 633.3 88.3 600 85.8C566.7 83.3 533.3 83.7 500 83C466.7 82.3 433.3 80.7 400 82.5C366.7 84.3 333.3 89.7 300 91.5C266.7 93.3 233.3 91.7 200 91.2C166.7 90.7 133.3 91.3 100 91C66.7 90.7 33.3 89.3 16.7 88.7L0 88Z" fill="#2b4a6b"></path><path d="M0 123L16.7 123C33.3 123 66.7 123 100 123C133.3 123 166.7 123 200 123C233.3 123 266.7 123 300 123C333.3 123 366.7 123 400 123C433.3 123 466.7 123 500 123C533.3 123 566.7 123 600 123C633.3 123 666.7 123 700 123C733.3 123 766.7 123 800 123C833.3 123 866.7 123 900 123C933.3 123 966.7 123 983.3 123L1000 123L1000 89L983.3 90.3C966.7 91.7 933.3 94.3 900 97C866.7 99.7 833.3 102.3 800 103.7C766.7 105 733.3 105 700 102.5C666.7 100 633.3 95 600 93C566.7 91 533.3 92 500 92C466.7 92 433.3 91 400 92.8C366.7 94.7 333.3 99.3 300 101C266.7 102.7 233.3 101.3 200 101.2C166.7 101 133.3 102 100 101.2C66.7 100.3 33.3 97.7 16.7 96.3L0 95Z" fill="#274060"></path></svg>